# xmcd
#
# Track frame offsets:
#  150
#  13659
#  31045
#  49423
#  67220
#  88232
#  108588
#  124160
#  141593
#  164486
#  175779
#
# Disc length: 2574 seconds
#
# Revision: 0
# Processed by: cddbd v1.4b42PL1 Copyright (c) Steve Scherf et al.
# Submitted via: AltoMP3_Maker 3.0
#
DISCID=a20a0c0b
DTITLE=Dixie Road - Barn Burner
DYEAR=1900
DGENRE=
TTITLE0=If She's Not From Texas
TTITLE1=This Ol' World
TTITLE2=Let Me Dream
TTITLE3=Ride Em Cowboy
TTITLE4=Good As Gone
TTITLE5=She Reminds Me Of You
TTITLE6=Lucky Streak Comin'
TTITLE7=It Was Me All Along
TTITLE8=Jenny's Dreams
TTITLE9=Barn Burner
TTITLE10=Free To Love
EXTD=
EXTT0=
EXTT1=
EXTT2=
EXTT3=
EXTT4=
EXTT5=
EXTT6=
EXTT7=
EXTT8=
EXTT9=
EXTT10=
PLAYORDER=
